<svg width="24" height="22" viewBox="0 0 24 22" fill="none" xmlns="http://www.w3.org/2000/svg">
<path d="M12.0187 0.00107907C15.3866 0.00107907 18.7549 0.00107907 22.1238 0.00107907C23.0933 0.00107907 23.7039 0.491612 23.9505 1.48477C24.1031 2.10002 23.8869 2.62456 23.5208 3.08335C22.3209 4.58745 21.1178 6.08727 19.9113 7.5828C18.4775 9.36732 17.0408 11.1488 15.6184 12.9439C15.4924 13.1173 15.4212 13.3291 15.4148 13.5486C15.3965 14.7821 15.3951 16.0166 15.4106 17.2521C15.4155 17.7154 15.253 18.0299 14.8912 18.2846C13.2815 19.4183 11.6844 20.5732 10.0796 21.7145C9.78424 21.9247 9.48603 22.1136 9.09808 21.9179C8.69529 21.7161 8.58011 21.3782 8.58081 20.9398C8.58505 18.5597 8.57304 16.1781 8.59141 13.7987C8.60398 13.3995 8.46832 13.0112 8.21406 12.7187C5.62866 9.5205 3.05173 6.31477 0.483292 3.10149C-0.327238 2.08792 -0.0926302 0.733478 0.994907 0.196839C1.28563 0.066717 1.59846 0.00262856 1.91355 0.00863739C5.28358 -0.00421171 8.65148 0.00107907 12.0187 0.00107907ZM1.73901 1.84455C1.87115 2.01688 1.95101 2.12194 2.02874 2.22246C4.6669 5.50578 7.30507 8.78734 9.94324 12.0671C10.1575 12.318 10.2723 12.6481 10.2633 12.9877C10.2535 14.94 10.2584 16.8916 10.2598 18.8439C10.2598 18.986 10.2775 19.1288 10.2888 19.3095C10.3708 19.2784 10.4506 19.241 10.5276 19.1976C11.5247 18.4879 12.5268 17.7842 13.5111 17.0533C13.6341 16.9619 13.7231 16.7253 13.7231 16.5545C13.7408 15.3452 13.7175 14.1358 13.745 12.9265C13.7523 12.6435 13.8436 12.3703 14.0058 12.1465C16.4927 9.02492 18.9896 5.91242 21.4963 2.80898C21.7365 2.51043 21.969 2.20432 22.2503 1.84228L1.73901 1.84455Z" fill="white"/>
</svg>
