<svg width="24" height="25" viewBox="0 0 24 25" fill="none" xmlns="http://www.w3.org/2000/svg">
<path d="M12.016 0.00156977C14.9695 0.00156977 17.923 0.00156977 20.8765 0.00156977C22.6905 0.00156977 24 1.31041 24 3.12087C24 9.03948 24 14.9578 24 20.876C24 22.5839 22.6158 23.9946 20.9065 23.9967C14.9186 24.0046 8.93023 24.0046 2.94139 23.9967C1.34302 23.9967 0.0055814 22.6579 0.00418605 21.0595C-0.00139535 15.0595 -0.00139535 9.05948 0.00418605 3.05948C0.00418605 1.39203 1.42186 0.00156977 3.08581 0.000174419C6.06256 -0.000290697 9.0393 0.000174418 12.016 0.00156977ZM11.894 22.5072H20.6847C21.8456 22.5072 22.5091 21.8527 22.5091 20.7051C22.5091 14.8934 22.5091 9.08134 22.5091 3.26878C22.5091 2.08273 21.9223 1.49669 20.7279 1.49669C14.914 1.49669 9.10186 1.49669 3.29163 1.49669C2.15442 1.49669 1.4986 2.1525 1.4986 3.28971C1.4986 9.13715 1.4986 14.9841 1.4986 20.8306C1.4986 21.9162 2.09093 22.5051 3.1786 22.5051L11.894 22.5072Z" fill="white"/>
<path d="M11.9819 7.48275H6.12139C5.59116 7.48275 5.24999 7.19252 5.25208 6.74949C5.25418 6.30647 5.58488 6.00717 6.12488 6.00647C10.0421 6.00647 13.9598 6.00647 17.8779 6.00647C18.3439 6.00647 18.5993 6.18019 18.7095 6.54926C18.8086 6.87996 18.7046 7.16321 18.4305 7.34112C18.2605 7.43741 18.0676 7.48564 17.8723 7.48066C15.9112 7.48624 13.9465 7.48275 11.9819 7.48275Z" fill="white"/>
<path d="M12.0084 11.9855C10.0674 11.9855 8.12651 11.9918 6.18628 11.9772C5.94743 11.9785 5.71315 11.9117 5.51093 11.7846C5.25558 11.6074 5.19139 11.3109 5.30791 11.0025C5.41674 10.7172 5.61628 10.5455 5.92953 10.5246C5.98744 10.5204 6.04535 10.519 6.10325 10.519C10.0316 10.519 13.96 10.519 17.8884 10.519C18.344 10.519 18.586 10.6767 18.7039 11.0227C18.7392 11.1243 18.7513 11.2325 18.7392 11.3394C18.7272 11.4462 18.6913 11.549 18.6343 11.6402C18.5772 11.7313 18.5005 11.8086 18.4097 11.8662C18.3189 11.9238 18.2163 11.9602 18.1095 11.973C17.9822 11.9846 17.8543 11.9886 17.7265 11.9848L12.0084 11.9855Z" fill="white"/>
<path d="M12 15.0162C13.9758 15.0162 15.9516 15.0162 17.9302 15.0162C18.5428 15.0162 18.9244 15.52 18.6726 16.0286C18.5826 16.2113 18.3572 16.3425 18.1688 16.4555C18.0719 16.5141 17.9198 16.4897 17.7928 16.4897C13.9323 16.4897 10.0735 16.4897 6.21627 16.4897C5.8772 16.4897 5.55976 16.4534 5.36651 16.1283C5.06162 15.6141 5.41674 15.0183 6.04046 15.012C7.27256 15.0044 8.50465 15.012 9.73814 15.012L12 15.0162Z" fill="white"/>
</svg>
